<?xml version="1.0" encoding="UTF-8"?>
<svg id="Layer_1" data-name="Layer 1" xmlns="http://www.w3.org/2000/svg" viewBox="0 0 178.58 249.45">
  <defs>
    <style>
      .cls-1 {
        fill: #f6da75;
      }

      .cls-2 {
        fill: #9e9f9f;
      }

      .cls-3 {
        fill: #060302;
      }

      .cls-4 {
        fill: #868c93;
      }

      .cls-5 {
        fill: #9d9e9d;
      }

      .cls-6 {
        fill: #98bae0;
      }

      .cls-7 {
        fill: #e6b295;
      }

      .cls-8 {
        fill: #b9982f;
      }

      .cls-9 {
        fill: #030202;
      }

      .cls-10 {
        fill: #334872;
      }

      .cls-11 {
        fill: #4e759a;
      }

      .cls-12 {
        fill: #395275;
      }

      .cls-13 {
        fill: #ceccc6;
      }

      .cls-14 {
        fill: #fff0c0;
      }

      .cls-15 {
        fill: #fbd53e;
      }

      .cls-16 {
        fill: #171813;
      }

      .cls-17 {
        fill: #b4cde6;
      }

      .cls-18 {
        fill: #c4c4c0;
      }

      .cls-19 {
        fill: #fde466;
      }

      .cls-20 {
        fill: #ced2d7;
      }

      .cls-21 {
        fill: #956844;
      }

      .cls-22 {
        fill: #f2c831;
      }

      .cls-23 {
        fill: #0a0503;
      }

      .cls-24 {
        fill: #7ba2c9;
      }

      .cls-25 {
        fill: #99bce1;
      }

      .cls-26 {
        fill: #909396;
      }

      .cls-27 {
        fill: #dcc14e;
      }

      .cls-28 {
        fill: #b1cde9;
      }

      .cls-29 {
        fill: #030303;
      }

      .cls-30 {
        fill: #020103;
      }

      .cls-31 {
        fill: #7c99bc;
      }

      .cls-32 {
        fill: #a1a1a1;
      }

      .cls-33 {
        fill: #344c72;
      }

      .cls-34 {
        fill: #d39677;
      }

      .cls-35 {
        fill: #986944;
      }

      .cls-36 {
        fill: #0d0504;
      }

      .cls-37 {
        fill: #2f1a15;
      }

      .cls-38 {
        fill: #cfa41a;
      }

      .cls-39 {
        fill: #dfc046;
      }

      .cls-40 {
        font-size: 12px;
      }

      .cls-40, .cls-41 {
        fill: #231f20;
        font-family: Pribambas-Regular, Pribambas;
      }

      .cls-42 {
        fill: #3d414c;
      }

      .cls-43 {
        fill: #385074;
      }

      .cls-41 {
        font-size: 20px;
      }

      .cls-44 {
        fill: #efb793;
      }

      .cls-45 {
        fill: #624c3a;
      }

      .cls-46 {
        fill: #a5a7a6;
      }

      .cls-47 {
        fill: #d2936e;
      }

      .cls-48 {
        fill: #a09f9e;
      }

      .cls-49 {
        fill: #be8f72;
      }

      .cls-50 {
        fill: #33333b;
      }

      .cls-51 {
        fill: #f9f7f5;
      }

      .cls-52 {
        fill: #fde15b;
      }

      .cls-53 {
        fill: #a0a0a0;
      }

      .cls-54 {
        fill: #7c7d7c;
      }

      .cls-55 {
        fill: #a3cde2;
      }

      .cls-56 {
        fill: #1c1917;
      }

      .cls-57 {
        fill: #f4bb97;
      }

      .cls-58 {
        fill: #f1bb96;
      }

      .cls-59 {
        fill: #9abce2;
      }

      .cls-60 {
        fill: #7b9dc5;
      }

      .cls-61 {
        fill: #d39674;
      }

      .cls-62 {
        fill: #2f436b;
      }

      .cls-63 {
        fill: #99bbe0;
      }

      .cls-64 {
        fill: #7698bf;
      }

      .cls-65 {
        fill: #2a3d5c;
      }

      .cls-66 {
        fill: #e8f6fc;
      }

      .cls-67 {
        fill: #da9371;
      }

      .cls-68 {
        fill: #bfa34a;
      }

      .cls-69 {
        fill: #999b9d;
      }

      .cls-70 {
        fill: #060606;
      }

      .cls-71 {
        fill: #816c58;
      }

      .cls-72 {
        fill: #e09c7a;
      }

      .cls-73 {
        fill: #e4be31;
      }

      .cls-74 {
        fill: #cecdc6;
      }

      .cls-75 {
        fill: #110b09;
      }

      .cls-76 {
        fill: #e3b20c;
      }

      .cls-77 {
        fill: #d39e82;
      }

      .cls-78 {
        fill: #909191;
      }

      .cls-79 {
        fill: #c1a54a;
      }

      .cls-80 {
        fill: #f3c61c;
      }

      .cls-81 {
        fill: #5d7494;
      }

      .cls-82 {
        fill: #fafaf8;
      }

      .cls-83 {
        fill: #86898d;
      }

      .cls-84 {
        fill: #fddf5c;
      }

      .cls-85 {
        fill: #98badf;
      }

      .cls-86 {
        fill: #9d9e9e;
      }

      .cls-87 {
        fill: #5d708d;
      }

      .cls-88 {
        fill: #d6c466;
      }

      .cls-89 {
        fill: #d9a609;
      }

      .cls-90 {
        fill: #d0cbc6;
      }

      .cls-91 {
        fill: #7c5538;
      }

      .cls-92 {
        fill: #354b70;
      }

      .cls-93 {
        fill: #ddd4cd;
      }

      .cls-94 {
        fill: #707f9a;
      }

      .cls-95 {
        fill: #cdcdcd;
      }

      .cls-96 {
        fill: #9f9f9f;
      }

      .cls-97 {
        fill: #6e5848;
      }

      .cls-98 {
        fill: #d69a79;
      }

      .cls-99 {
        fill: #2a3e5c;
      }

      .cls-100 {
        fill: #d69473;
      }

      .cls-101 {
        fill: #cb9879;
      }

      .cls-102 {
        fill: #f0a281;
      }

      .cls-103 {
        fill: #785134;
      }

      .cls-104 {
        fill: #f5ceb6;
      }

      .cls-105 {
        fill: #9fa09f;
      }

      .cls-106 {
        fill: #030201;
      }

      .cls-107 {
        fill: #293958;
      }

      .cls-108 {
        fill: #7d9dc3;
      }

      .cls-109 {
        fill: #050302;
      }

      .cls-110 {
        fill: #7da3ca;
      }

      .cls-111 {
        fill: #e7f7fc;
      }

      .cls-112 {
        fill: #a3a3a3;
      }

      .cls-113 {
        fill: #868685;
      }

      .cls-114 {
        fill: #42444d;
      }

      .cls-115 {
        fill: #cf9170;
      }

      .cls-116 {
        fill: #dbdbda;
      }

      .cls-117 {
        fill: #f5bd98;
      }

      .cls-118 {
        fill: #a1a2a2;
      }

      .cls-119 {
        fill: #aeb0b3;
      }

      .cls-120 {
        fill: #7b9bbe;
      }

      .cls-121 {
        fill: #969a9f;
      }

      .cls-122 {
        fill: #a3a4a3;
      }

      .cls-123 {
        fill: #f2b590;
      }

      .cls-124 {
        fill: #f0a686;
      }

      .cls-125 {
        fill: #263454;
      }

      .cls-126 {
        fill: #ce9273;
      }

      .cls-127 {
        fill: #0f100e;
      }

      .cls-128 {
        letter-spacing: -.1em;
      }

      .cls-129 {
        letter-spacing: -.07em;
      }

      .cls-130 {
        fill: #7ea3cb;
      }

      .cls-131 {
        fill: #734e31;
      }

      .cls-132 {
        fill: #f7c913;
      }

      .cls-133 {
        fill: #0a0a0a;
      }

      .cls-134 {
        fill: #fbfbfb;
      }

      .cls-135 {
        fill: #fcfcfc;
      }

      .cls-136 {
        fill: #0a0504;
      }

      .cls-137 {
        letter-spacing: -.02em;
      }

      .cls-138 {
        letter-spacing: -.02em;
      }

      .cls-139 {
        letter-spacing: -.01em;
      }

      .cls-140 {
        letter-spacing: -.01em;
      }

      .cls-141 {
        fill: #737678;
      }

      .cls-142 {
        letter-spacing: -.04em;
      }

      .cls-143 {
        letter-spacing: -.04em;
      }

      .cls-144 {
        fill: #b3b8bc;
      }

      .cls-145 {
        fill: #6c8aad;
      }

      .cls-146 {
        fill: #c9c6bf;
      }

      .cls-147 {
        fill: #a8a8a8;
      }

      .cls-148 {
        fill: #c79b12;
      }

      .cls-149 {
        fill: #a4a4a4;
      }

      .cls-150 {
        fill: #324872;
      }

      .cls-151 {
        fill: #92928e;
      }

      .cls-152 {
        fill: #b5b6b8;
      }

      .cls-153 {
        fill: #bd9d3d;
      }

      .cls-154 {
        fill: #9a9b9a;
      }

      .cls-155 {
        fill: #cdcccc;
      }

      .cls-156 {
        fill: #d5b446;
      }

      .cls-157 {
        fill: #999b9e;
      }

      .cls-158 {
        fill: #c0e4f3;
      }

      .cls-159 {
        fill: #9c9d9d;
      }

      .cls-160 {
        fill: #efca39;
      }

      .cls-161 {
        fill: #e3c352;
      }

      .cls-162 {
        fill: #fbd654;
      }

      .cls-163 {
        fill: #b9bcbf;
      }

      .cls-164 {
        fill: #dc9876;
      }

      .cls-165 {
        fill: #fff9e9;
      }

      .cls-166 {
        fill: #7ba0c8;
      }

      .cls-167 {
        fill: #f4be98;
      }

      .cls-168 {
        fill: #d49e7e;
      }

      .cls-169 {
        fill: #6c6f7b;
      }

      .cls-170 {
        fill: #070403;
      }

      .cls-171 {
        fill: #d5d6d6;
      }

      .cls-172 {
        fill: #fdfdfd;
      }

      .cls-173 {
        fill: #f3bc98;
      }
    </style>
  </defs>
  <g>
    <rect class="cls-165" x=".5" y=".55" width="177.58" height="248.4" rx="14.23" ry="14.23"/>
    <path class="cls-14" d="M163.86,1.05c7.57,0,13.73,6.16,13.73,13.73v219.95c0,7.57-6.16,13.73-13.73,13.73H14.73c-7.57,0-13.73-6.16-13.73-13.73V14.77C1,7.21,7.16,1.05,14.73,1.05h149.13ZM163.86.05H14.73C6.59.05,0,6.64,0,14.77v219.95C0,242.86,6.59,249.45,14.73,249.45h149.13c8.13,0,14.73-6.59,14.73-14.73V14.77c0-8.13-6.59-14.73-14.73-14.73h0Z"/>
  </g>
  <path class="cls-14" d="M161.62,8.14H16.97c-5.5,0-9.96,4.47-9.96,9.97v213.22c0,5.5,4.46,9.97,9.96,9.97h144.65c5.49,0,9.96-4.47,9.96-9.97V18.11c0-5.5-4.47-9.97-9.96-9.97ZM169.46,231.33c0,4.33-3.52,7.85-7.84,7.85H16.97c-4.33,0-7.85-3.52-7.85-7.85V18.11c0-4.33,3.52-7.85,7.85-7.85h144.65c4.32,0,7.84,3.52,7.84,7.85v213.22Z"/>
  <path class="cls-111" d="M169.46,18.11v213.22c0,4.33-3.52,7.85-7.84,7.85H16.97c-4.33,0-7.85-3.52-7.85-7.85V18.11c0-4.33,3.52-7.85,7.85-7.85h144.65c4.32,0,7.84,3.52,7.84,7.85Z"/>
  <text class="cls-41" transform="translate(27.98 173.25)"><tspan x="0" y="0">H</tspan><tspan class="cls-140" x="8.34" y="0">e</tspan><tspan x="16.2" y="0">a</tspan><tspan class="cls-128" x="25.44" y="0">l</tspan><tspan x="31.36" y="0">th Insp</tspan><tspan class="cls-137" x="82.04" y="0">e</tspan><tspan x="89.74" y="0">c</tspan><tspan class="cls-143" x="97.24" y="0">t</tspan><tspan x="105.04" y="0">or</tspan></text>
  <text class="cls-40" transform="translate(31.25 194.14)"><tspan class="cls-138" x="0" y="0">L</tspan><tspan x="4.54" y="0">ook through one player&apos;s</tspan><tspan x="9.22" y="14.4">hand and </tspan><tspan class="cls-129" x="51.81" y="14.4">t</tspan><tspan x="56.14" y="14.4">ake 2 </tspan><tspan class="cls-139" x="81.75" y="14.4">c</tspan><tspan x="86.07" y="14.4">ards</tspan><tspan class="cls-142" x="28.18" y="28.8">f</tspan><tspan x="32.68" y="28.8">or yourself.</tspan></text>
  <g id="o9tRNY">
    <g>
      <path class="cls-30" d="M48.94,107.42c-.09.06-.2.16-.3.18.03-.11.03-.24,0-.41.04.08.08.16.11.22.01.03.09.02.19,0Z"/>
      <polygon class="cls-30" points="51.33 114.44 48.67 114.85 47.68 112.45 50.2 112.11 51.33 114.44"/>
      <polygon class="cls-30" points="60.05 134.06 57.43 134.45 56.35 131.95 58.96 131.61 60.05 134.06"/>
      <path class="cls-30" d="M62.76,112.72l-10.08,1.08c.01-.06,0-.16-.04-.25l9.94-1.11c.11,0,.28-.11.35-.09.1.04.2.33-.17.37Z"/>
      <path class="cls-30" d="M64.33,115.98l-9.58,1.08c-.36.04-.56.15-.66-.25l10.52-1.18c.07.3-.08.34-.28.35Z"/>
      <path class="cls-30" d="M64.81,109c0,.13-.06.24-.31.26l-13.1,1.41c-.18-.11-.23-.29-.26-.45l13.46-1.48c.15-.02.22.2.21.26Z"/>
      <path class="cls-30" d="M65.38,107.96l-14.48,1.64c-.47.06-.71-.02-.74-.42l14.79-1.63c.2-.04.3-.09.38-.06.16.05.21.45.05.47Z"/>
      <path class="cls-30" d="M66.11,119.14l-8.3.97c-.9.11-1.59.26-2.41.16.16-.45.5-.24.84-.29l9.6-1.11c.18-.06.34.03.27.28Z"/>
      <path class="cls-30" d="M66.49,124.86l-8.35.92c-.06-.06-.12-.15-.15-.25l8.39-.98c.09.09.13.18.11.31Z"/>
      <path class="cls-30" d="M66.79,132.97l-5.35.61-.09-.23,5.37-.67c.08.09.09.2.07.29Z"/>
      <path class="cls-30" d="M69.98,110.73l-17.72,1.98v-.3s17.4-1.95,17.4-1.95l.36-.09c.11-.03.21.33-.04.36Z"/>
      <path class="cls-30" d="M71.11,129.32l-10.82,1.24c-.09-.09-.14-.19-.15-.26l10.86-1.3c.08.1.13.18.1.32Z"/>
      <path class="cls-30" d="M71.44,113.95l-3.33.41-14.53,1.62c.02-.1,0-.21,0-.31l17.78-2.02c.09.09.12.19.09.3Z"/>
      <path class="cls-30" d="M71.61,128.03l-11.92,1.33-.02-.29,11.84-1.37c.09.11.1.22.1.33Z"/>
      <path class="cls-30" d="M72.94,117.13l-17.87,2.1-.07-.28,12.62-1.47,5.22-.66c.11.1.1.22.1.32Z"/>
      <path class="cls-30" d="M74.26,120.43l-17.35,2.03c-.25.05-.38-.1-.26-.28l17.52-2.04c.12.1.09.21.09.29Z"/>
      <path class="cls-30" d="M75.14,122.65l-17.57,1.98.06-.28,17.03-1.98c.29-.04.58-.13.48.28Z"/>
      <path class="cls-30" d="M76.46,125.76l-17.57,2v-.3s17.1-1.95,17.1-1.95c.28-.04.56-.14.47.25Z"/>
      <path class="cls-30" d="M78.62,131.85l-4.78.51c-.09-.05-.11-.14-.11-.19l4.54-.61c.23-.03.44.13.35.29Z"/>
      <path class="cls-30" d="M78.79,130.13c-1.62.54-3.14.38-4.8.71l-1.26,1.82c-.09.13-.2.17-.3.12-.1-.06-.13-.16-.05-.29l1.24-1.94,5.17-.41Z"/>
      <path class="cls-30" d="M84.49,132.11s0,.04,0,.05c0-.02,0-.03.02-.04h0ZM76.3,110.22s.09.06.15.09c.05.02.1.04.16.05-.1-.05-.21-.09-.3-.14ZM144.22,117.02c-1.46-9.95-4.4-19.77-9.52-28.43-.98-1.65-2.04-3.06-3.35-4.44-.51-.55-1.35-.9-1.71-1.56-.27-.5-.29-1.01-.85-1.36l-1.72-1.07-9.24-4.62c-.72-.35-1.39-.29-2.09-.61l-4.42-1.95c-1.12-1.95-2.79-3.32-4.8-4.39.17-1.35.21-2.67.15-4.13,1.8.18,3.35-.79,4.31-2.28,1.69-2.66,1.3-6.37-1.5-7.51-.05-1.42.29-2.97-.13-4.36-.11-.37-.26-.61-.2-1.02.23-1.49.32-2.94.35-4.5,1.26-.41,2.46-.91,3.57-1.63,2.18-1.42,2.8-4.81,1.03-6.03l-2.72-1.9c-2.5-1.74-4.5-3.95-6.35-6.35-.21-.27-.69-.33-1.04-.33-6.54,0-14.15-1.38-20.01-4.22-.78-.38-1.89-.27-2.53.22-1.81,1.43-3.49,2.81-5.5,3.93-2.03,1.14-4.09,1.98-6.35,2.56-.78.2-1.43.69-1.65,1.54-1.2,4.49,1.24,8.04,5.72,9.2,0,1.48-.05,2.92.03,4.47-1.53,1.08-3.78,2.88-3.36,4.31.36,1.24,2.04,1.67,3.5,2.09-.04,1.52.07,2.98.2,4.53l.8,8.93c.48,3.7.93,7.69,3.39,10.65-3.61,1.19-6.98,2.81-10.38,4.57-1.91.99-3.98,1.84-3.53,3.78-3.73,3.86-5.74,7.89-7.5,12.87.08-2.23-.88-4.03-2.9-4.46-1.34-.26-2.58.25-3.29,1.28-.75,1.1-.72,2.47.08,3.65l-2.68.25c-.36.03-.68.25-.84.44-.26.31-.27.73-.17,1.25l-7.41.28c-.57.03-1.04.24-1.34.61-.3.38-.56.92-.32,1.46l4.9,11.72c-1.43,1.01-2.07,2.74-1.51,4.37.2.61.77.99,1.24,1.45-.74,1.02-.68,2.22.2,3.04.35.34.69.64,1.18.8-.61,1.72.3,3.56,2.22,3.97-.47,1.3.07,2.47,1.36,2.9.93.3,1.89.29,2.96.19l3.16,7.2c.42.95,1.43,1.36,2.43,1.35l11.59-.13.38,4.27c.87.52,1.36-.75.56-1.09-.02-.08-.03-.17-.05-.25-.06-.39-.11-1.04-.08-1.44,0-.03.05-.05.12-.06.02,0,.04-.02.07-.02h0s0,0,.02,0c0-.09-.03-.18-.04-.26-.02-.32,0-.61.08-.84l15.56-.27c.94-.16,1.45-.65,1.69-1.32.02-.04.03-.08.04-.12.24-.82.08-1.86-.23-2.81-.09-.25-.16-.43-.47-.47.11-.09.2-.19.23-.33,0-.05-.12-.45-.29-.89.28.46.63.94.91,1.25.86,1.75,1.83,3.45,2.9,5.1.32.61.65.8,1,.56.37.13.79.23,1.11.06.09-.04.18-.12.24-.21l5.15-7.68c.26-2.08.22-4.22-.12-6.4l2.16,3.05c1.23,1.31,3.48.89,3.81-1l.71.15c-.15.65-.02,1.17.38,1.57l4.48,2.73c5.29,4.02,11.92,6.55,18.52,7.38l.07,2.75.33.18c.11.03.28.11.4.07.2-.05.31-.22.31-.45l-.03-2.66,5.12.15c1.87.05,3.6-.51,5.29-1.28,1.62-.74,2.98-1.84,3.91-3.37,3.14-5.14,3.16-12.62,2.28-18.59ZM64.76,87.6c.12.12.25.19.4.22.02,0,.05,0,.08,0,.21.03.48-.02.76-.15t.02,0c.07-.03.14-.06.2-.1,3.5-1.57,7.04-3.07,10.61-4.53l2.95-1.5c.03.58.22.88.57.89-.18,1.68.43,3.48,1.1,5-.19-.25-.54-.31-1.04-.16-14.45,3.25-5.85,23.85,6.51,21.86-1.21,6.42-2.19,12.9-2.83,19.4,0,.28.09.46.28.5-.16.1-.25.24-.31.41-.16.44-.06,1.06.04,1.5.04.16.08.31.14.45-2.76-6.7-5.58-13.41-8.46-20.13.27.05.49.05.64,0,.13-.04.22-.11.27-.21l2.53.13.22.33c.66.07,3.18.27,3.15-.59,0-.29-.19-.43-.42-.56-.24-.14-4.77-.34-5.42-.34-.09,0-.14.2-.16.32-.1-.05-.21-.09-.3-.14h0c-.21-.09-.4-.17-.61-.23-.14-.05-.28-.09-.42-.13-.93-2.34-1.92-4.64-2.98-6.91h0c-.16-.34-.31-.68-.47-1.02l-.42-.5c.22-.54,0-1.07-.66-1.62-1.14-.71-2.48-.92-4.01-.63l.21-2.7c-.12-.29-.28-.46-.6-.36-.56.18-.9,2.44-.91,3.04-1.43.11-2.88.17-4.35.18-.2-1.82-1.71-1.81-3.14-1.64,1.43-3.96,3.47-7.71,6.2-10.93.02.5.2.73.52.72.03.05.07.09.11.13ZM48.81,103.28l10.95-.58c.71.05,1.04-.43,1.22-1.02l7.4-.67,14.27,34.08-26.52,1.17-2.07-4.86c.02-.28.31-.36.46-.6l.83-1.3.66,1.64,2.6-.42-.98-2.3c-.08-.19-.64-.11-.81-.06l-.74.02c.04-.54-.03-1.07.14-1.49.14.04.66,0,.56-.28l-.89-2.33c-.11-.27-.33-.5-.68-.73.47-.43.77-.88.71-1.49-.06-.5-.33-.91-.66-1.3-.36-.44-.77-.87-1.38-.94-.38-.57-.38-1.3-.75-1.84l-.68-1.02-.82-1.62-1.81.21c-.47.06-.88.45-1.92.51-.32,0-.63-.02-.96-.04l-5.61-12.79,6.35-.52c.29.37.63.62,1.13.6ZM84.41,132.36c0-.07.02-.14.06-.19,0,0,0,0,0-.02,0-.02,0-.03.02-.04,0,0,0-.02.02-.03l-.06-.15c-.05-.11-.09-.21-.13-.31.05.12.12.23.2.34,0,0,0,0,0,0,.12.19.27.35.47.51-.1.1-.18.22-.14.35.01.03.02.06.04.1-.16-.26-.32-.44-.46-.36-.02-.08-.03-.16-.04-.21Z"/>
      <path class="cls-59" d="M116.01,145.78c-15.79,2.55-31.67,2.36-47.2-1.75-.17-.04-.73.16-.75-.16.14.06.44.08.54,0,.13-.39.02-.76.02-1.1-.09-.34-.21-1.85-.07-2.04,5.28-.24,10.55-.56,15.8-.97.97-.2,1.66-.91,1.73-1.92.06-.8-.04-2.55-.75-2.94l-.88-2.32c-.23-.98.06-.7.56-.1l1.94,3.36,2.35,3.91c.21.35.47.66.77.82l.94.03c4.17.91,6.1-5.44,6.87-8.63.24-.52.76-.62,1.54-.32l3.11.3c1.39.78,2.71,1.76,3.97,2.94,3.01,2.21,6.13,4.23,9.36,6.06.42.76.6,1.63.54,2.62.15.9.02,1.63-.38,2.19Z"/>
      <path class="cls-110" d="M126.93,143.15c-3.63,1.11-7.2,1.95-10.92,2.63.09-1.37.11-2.74-.15-4.16-.06-.33-.41-.62-.72-.79-4-2.13-7.65-4.61-11.14-7.5-.5-.41-1.1-1.03-1.7-1.08l-2.92-.26-1.12-.22c-.51,3-1.75,5.9-3.82,8.19-1.18,1.3-2.95,1.38-4.36.62.55.15.93-.08,1.26-.57l4.1-6.13c.35-.52.93-1.11.99-1.76.17-2.08-.19-4.1-.34-6.14.38-.12.63.09.84.38l1.9,2.74c.6.86,1.99.92,2.81.24.4-.33.42-.9.45-1.36l1.61.33c-.34.56-.39,1.28.11,1.59l4.4,2.68c2.36,1.95,5.01,3.24,7.82,4.44,3.52,1.51,7.05,2.5,10.83,2.96l.08,3.17Z"/>
      <path class="cls-63" d="M124.83,88.42c-.24.63-.8,1.24-.48,2.07.67-1.3,1.38-2.36,2.05-3.44.59-.47,1.14-1.02,1.65-1.64.72-.64,1.79-1.51,2.7-.78l1.36,1.44c1.95,2.6,3.54,5.4,4.76,8.44-2.9-.5-5.17-.38-7.32,1.63l-2.39,2.57c-.31.33-.35.97-.22,1.41l1.17,3.97c1.16,3.92,3.38,5.69,7.23,6.81.75.22,1.43.48,2.15.41.54-.18.9-.1,1.08.24,1.97,5.71,2.14,12.99.13,18.73-1.34,3.83-5.16,4.88-8.9,4.94-6,.1-13.99-2.33-18.9-5.61l-.05-.4c1.47-2.74,1.5-5.38,1.17-8.44l.23-.39c4.4.74,8.85,1.5,13.36,2.27l4.63,1.12c.14.08.26.1.36.07.74-.28-2.13-1.99-3.52-2.86-.77-.48-1.52-.83-2.51-1.12,1.85-.88,3.9-.53,5.9.24.18-.36-.19-.57-.5-.71-1.9-.87-4-.8-5.97-.08l-1.53-10.41-1.25-5.52c-.04-.19-.21-.3-.32-.32-.1-.01-.23.04-.29.07.08.26-.09.44-.51.55-.04,5.17-.37,10.34-.98,15.51-.19.12-.41.17-.65.14-2.15-.42-4.3-.67-6.59-.65-2.11-.23-4.04-.95-6.1-1.38-.54-.11-.8.02-1.16-.5-1.74-2.51-5.71-7.79-8.25-7.92l-.34-.13-.78-13.2c.03-.64,1.18-3.25,1.7-3.26.09,0,.18.02.27.04l1.6,1.86c.79.3,1.71,0,2.42-.41,4.51-2.55,7.72-7.94,10.11-12.4l.4-.05c4.2,2.22,8.51,4.18,12.86,6.12.39.16.46.48.21.95Z"/>
      <path class="cls-135" d="M68.38,101.01l-7.4.67c-.18.6-.51,1.07-1.22,1.02l-10.95.58c-.5.03-.84-.22-1.13-.6l-6.35.52,5.61,12.79c.32.02.63.04.96.04,1.04-.06,1.45-.45,1.92-.51l1.81-.21.82,1.62.68,1.02c.37.55.37,1.28.75,1.84.61.07,1.02.5,1.38.94.33.39.61.8.66,1.3.06.61-.24,1.06-.71,1.49.35.23.58.46.68.73l.89,2.33c.11.27-.42.32-.56.28-.17.42-.1.96-.14,1.49l.74-.02c.17-.05.73-.13.81.06l.98,2.3-2.6.42-.66-1.64-.83,1.3c-.15.23-.44.31-.46.6l2.07,4.86,26.52-1.17-14.27-34.08ZM76.46,125.76l-17.57,2v-.3s17.1-1.95,17.1-1.95c.28-.04.56-.14.47.25ZM64.95,107.55c.2-.04.3-.09.38-.06.16.05.21.45.05.47l-14.48,1.64c-.47.06-.71-.02-.74-.42l14.79-1.63ZM48.64,107.19c.04.08.08.16.11.22.01.03.09.02.19,0-.09.06-.2.16-.3.18.03-.11.03-.24,0-.41ZM48.67,114.85l-1-2.4,2.52-.34,1.13,2.33-2.66.41ZM51.4,110.67c-.18-.11-.23-.29-.26-.45l13.46-1.48c.15-.02.22.2.21.26,0,.13-.06.24-.31.26l-13.1,1.41ZM52.27,112.71v-.3s17.4-1.95,17.4-1.95l.36-.09c.11-.03.21.33-.04.36l-17.72,1.98ZM52.68,113.81c.01-.06,0-.16-.04-.25l9.94-1.11c.11,0,.28-.11.35-.09.1.04.2.33-.17.37l-10.08,1.08ZM53.58,115.98c.02-.1,0-.21,0-.31l17.78-2.02c.09.09.12.19.09.3l-3.33.41-14.53,1.62ZM54.76,117.07c-.36.04-.56.15-.66-.25l10.52-1.18c.07.3-.08.34-.28.35l-9.58,1.08ZM55.07,119.23l-.07-.28,12.62-1.47,5.22-.66c.11.1.1.22.1.32l-17.87,2.1ZM55.4,120.27c.16-.45.5-.24.84-.29l9.6-1.11c.18-.06.34.03.27.28l-8.3.97c-.9.11-1.59.26-2.41.16ZM56.91,122.46c-.25.05-.38-.1-.26-.28l17.52-2.04c.12.1.09.21.09.29l-17.35,2.03ZM57.57,124.63l.06-.28,17.03-1.98c.29-.04.58-.13.48.28l-17.57,1.98ZM58.14,125.77c-.06-.06-.12-.15-.15-.25l8.39-.98c.09.09.13.18.11.31l-8.35.92ZM57.43,134.45l-1.08-2.5,2.62-.34,1.08,2.45-2.62.39ZM66.79,132.97l-5.35.61-.09-.23,5.37-.67c.08.09.09.2.07.29ZM60.29,130.56c-.09-.09-.14-.19-.15-.26l10.86-1.3c.08.1.13.18.1.32l-10.82,1.24ZM59.69,129.36l-.02-.29,11.84-1.37c.09.11.1.22.1.33l-11.92,1.33ZM72.42,132.77c-.1-.06-.13-.16-.05-.29l1.24-1.94,5.17-.41c-1.62.54-3.14.38-4.8.71l-1.26,1.82c-.09.13-.2.17-.3.12ZM78.62,131.85l-4.78.51c-.09-.05-.11-.14-.11-.19l4.54-.61c.23-.03.44.13.35.29Z"/>
      <path class="cls-172" d="M48.94,107.42c-.09.06-.2.16-.3.18.03-.11.03-.24,0-.41.04.08.08.16.11.22.01.03.09.02.19,0Z"/>
      <polygon class="cls-172" points="51.33 114.44 48.67 114.85 47.68 112.45 50.2 112.11 51.33 114.44"/>
      <path class="cls-172" d="M52.44,116.94c-.43-.36-.78-.78-1.05-1.26-1.18.23-2.35.35-3.49.35,1.04-.06,1.45-.45,1.92-.51l1.81-.21.82,1.62Z"/>
      <path class="cls-172" d="M53.88,119.81c-.57-.17-.78-.62-.63-1.37l-.12-.48c.37.55.37,1.28.75,1.84Z"/>
      <path class="cls-172" d="M55.35,129.5l-.83,1.3c-.15.23-.44.31-.46.6-.04-.21-.06-.38,0-.59.02-.1,1.04-1.61,1.3-1.31Z"/>
      <path class="cls-172" d="M55.89,124.27c-.31-.33-.54-.58-.68-.73.35.23.58.46.68.73Z"/>
      <path class="cls-172" d="M55.92,122.04c.06.61-.24,1.06-.71,1.49-.13-.15-.2-.21-.2-.21.79-.74.66-1.67.24-2.58.33.39.61.8.66,1.3Z"/>
      <path class="cls-172" d="M56.22,126.89c.16-.1.24-.19.26-.24.03-.07,0-.11-.1-.14l.03-.03.04-.05.09-.1-.7-1.71s-.03-.07-.04-.09h0s-.04-.1-.04-.1l.13-.17.89,2.33c.11.27-.42.32-.56.28Z"/>
      <path class="cls-172" d="M56.82,128.36c-.19.06-.72.19-.84.12-.05-.03-.1-.09-.13-.17h0c0-.1-.03-.19-.08-.26-.09-.43,0-1.03.32-1.14l.12-.02c-.17.42-.1.96-.14,1.49l.74-.02Z"/>
      <path class="cls-172" d="M58.61,130.72l-2.6.42-.66-1.64.37.04.22.53.29.7c.09.04,1.83-.22,1.87-.3,0,0,0-.02,0-.05,0-.06-.03-.16-.07-.28l-.02-.05c-.09-.27-.23-.63-.4-.93l-.02-.04c-.12-.22-.24-.39-.35-.45h0c-.07-.05-.12-.05-.17-.02l-.24-.29c.17-.05.73-.13.81.06l.98,2.3Z"/>
      <polygon class="cls-172" points="60.05 134.06 57.43 134.45 56.35 131.95 58.96 131.61 60.05 134.06"/>
      <path class="cls-172" d="M62.76,112.72l-10.08,1.08c.01-.06,0-.16-.04-.25l9.94-1.11c.11,0,.28-.11.35-.09.1.04.2.33-.17.37Z"/>
      <path class="cls-172" d="M64.33,115.98l-9.58,1.08c-.36.04-.56.15-.66-.25l10.52-1.18c.07.3-.08.34-.28.35Z"/>
      <path class="cls-172" d="M64.81,109c0,.13-.06.24-.31.26l-13.1,1.41c-.18-.11-.23-.29-.26-.45l13.46-1.48c.15-.02.22.2.21.26Z"/>
      <path class="cls-172" d="M65.38,107.96l-14.48,1.64c-.47.06-.71-.02-.74-.42l14.79-1.63c.2-.04.3-.09.38-.06.16.05.21.45.05.47Z"/>
      <path class="cls-172" d="M66.11,119.14l-8.3.97c-.9.11-1.59.26-2.41.16.16-.45.5-.24.84-.29l9.6-1.11c.18-.06.34.03.27.28Z"/>
      <path class="cls-172" d="M66.49,124.86l-8.35.92c-.06-.06-.12-.15-.15-.25l8.39-.98c.09.09.13.18.11.31Z"/>
      <path class="cls-172" d="M66.79,132.97l-5.35.61-.09-.23,5.37-.67c.08.09.09.2.07.29Z"/>
      <path class="cls-172" d="M69.98,110.73l-17.72,1.98v-.3s17.4-1.95,17.4-1.95l.36-.09c.11-.03.21.33-.04.36Z"/>
      <path class="cls-172" d="M71.11,129.32l-10.82,1.24c-.09-.09-.14-.19-.15-.26l10.86-1.3c.08.1.13.18.1.32Z"/>
      <path class="cls-172" d="M71.44,113.95l-3.33.41-14.53,1.62c.02-.1,0-.21,0-.31l17.78-2.02c.09.09.12.19.09.3Z"/>
      <path class="cls-172" d="M71.61,128.03l-11.92,1.33-.02-.29,11.84-1.37c.09.11.1.22.1.33Z"/>
      <path class="cls-172" d="M72.94,117.13l-17.87,2.1-.07-.28,12.62-1.47,5.22-.66c.11.1.1.22.1.32Z"/>
      <path class="cls-172" d="M74.26,120.43l-17.35,2.03c-.25.05-.38-.1-.26-.28l17.52-2.04c.12.1.09.21.09.29Z"/>
      <path class="cls-172" d="M75.14,122.65l-17.57,1.98.06-.28,17.03-1.98c.29-.04.58-.13.48.28Z"/>
      <path class="cls-172" d="M76.46,125.76l-17.57,2v-.3s17.1-1.95,17.1-1.95c.28-.04.56-.14.47.25Z"/>
      <path class="cls-172" d="M78.62,131.85l-4.78.51c-.09-.05-.11-.14-.11-.19l4.54-.61c.23-.03.44.13.35.29Z"/>
      <path class="cls-172" d="M78.79,130.13c-1.62.54-3.14.38-4.8.71l-1.26,1.82c-.09.13-.2.17-.3.12-.1-.06-.13-.16-.05-.29l1.24-1.94,5.17-.41Z"/>
      <path class="cls-117" d="M104.13,57.84c.92-.21.83,0,.42.7-.21,6.56-1.03,14.4-6.66,18.67-4.1,3.11-9.95,3.81-14.78,2.51-.89-.38-1.71-.87-2.45-1.47l-.04-.2c-2.05-1.67-2.92-4.51-3.55-7.03-.15-.62-.76-3.34-.67-3.82.03-.16.18-.28.31-.38h.43c1.08,1.45,3.97,1.13,4.85-.32,1.47-2.45-4.82-2.6-4.95-.16l-.33.15c-.38.05-.56-.21-.56-.78l-1.1-11.73.31-.26.22-.34c3.89.79,8.04.84,12.02.56l5.15-.68c.24-.03.34.16.38.41v.37s-3.83,2.14-3.83,2.14c0,.19,0,.44,0,.74l.34.21c.03.71.09,1.44.42,2.08.76-.74,1.22-.87,1.38-.4.53.06.78.58.76,1.54.25.7.87,1.19,1.63,1.02l.11.13.07-.17c1.45-.44,2.13-1.28,2.03-2.51l.32-.19c-.38-.37.04-.62.38-.78.41-.15-.2-.19-.54-.21-1.39-.07-2.61.3-3.92.71-.14.02-.24-.05-.32-.18-.62.44-.67,0-.5-.58-.12-.58-.03-1,.29-1.27-.03-.13-.08-.32,0-.38,1.29-.93,3.04-1.69,4.55-2.17-.14-.06-.21-.18-.23-.37-.84-.18-.99-.4-.45-.66l2.31-.61c1.26-.51,2.5-.95,3.72-1.31,1.03,2.18,1.71,4.51,2.08,6.96.07.08.33.07.42.07Z"/>
      <path class="cls-63" d="M80.35,82.44c.38,1.68.81,3.37,1.32,5.09-5.04.02-8.84,4.12-8.48,9.15.2,2.87,1.29,5.44,3.13,7.66,2.62,3.23,7.02,5.5,11.02,4.28l-1.6,9.15-1.24,9.65-.14,1.62c-.15.5-.28.54-.67.16-2.5-5.87-4.94-11.79-7.3-17.74l.03-.41,2.79.14,2.77.02c.17,0,.3-.17.3-.26,0-.09-.13-.28-.3-.29l-5.4-.31-.88-.3c-1.2-3.02-2.64-5.9-4.31-8.62-1.01-2.46-2.48-1.96-5.09-1.91l.32-3.27c-.84.95-.73,2.14-.92,3.27l-4.97.14c0-.69-.2-1.39-.8-1.59-.77-.26-1.56-.05-2.47-.05,1.57-4.51,3.77-8.49,6.84-11.98l.35,1.42c.19.28.38.4.72.34,1.02-.18,2.29-.58,3.3-.93,3.6-1.24,7.16-2.71,10.64-4.31l1.03-.14Z"/>
      <path class="cls-24" d="M110.86,129.21l3,1.69c2.52,1.41,5.17,2.28,8,2.91,4.12.91,8.51,1.74,12.49.34,2.01-.71,3.42-2.15,4.11-4.18,1.76-5.17,1.73-12.7,0-17.86-.19-.55-.49-.84-.98-.8,2.26-.5,2.65-3.46,3.36-5.98l1.99,8.32c1.53,6.41,2.09,19.75-3.52,23.65-1.71,1.19-3.72,1.91-5.84,2.05-5.08.33-10.1-.39-14.88-2.11-3.65-1.31-6.99-2.88-10.13-5.15,1.13-.86,1.83-1.82,2.39-2.88Z"/>
      <path class="cls-33" d="M105.02,30.12c.54.94.05,2.27-.37,3.22-1.86,4.24-6.03,5.17-10.18,4.73-1.79-.28-3.5-.42-5.36-.41-.06-1.81-1.58-2.7-.71-4.84.27-.66.34-1.48-.16-2.04-.62-.69-2.41.55-3.64,0-.89-.4-1.37-1.32-1.91-2.04s-1.01,1.86-2.33,2.67l-2.36.45c-.53.3-.35,1.19-.06,1.61,1.35,1.93-.3,3.18.39,5.58-1.72.26-3.19.83-4.6,1.62-1.9-1.84-4.2-4.16-4.33-7.05,5.04-1.77,10.05-4.03,13.38-8.38l.64-.32c.44.08.85.27,1.27.48,5.47,2.69,13.44,3.89,19.57,3.87.42,0,.55.63.74.85Z"/>
      <path class="cls-167" d="M104.86,125.92c-.4.58-1.03.71-1.91.39-1.91-.77-3.57-2-4.99-3.68l-2.97,1.06c-.74.14-1.8.27-1.63-.74.32-.7.94-1.13,1.63-1.58l2.42-1.55c.2-.13.32-.37.26-.56-.3-.31-.56-.41-.76-.3l-3.62,2.34c-1.03.4-1.98-.74-1.54-1.72,1.7-1.94,4.63-2.81,4.49-3.61l-.34-.06c-1.65.71-3.26,1.52-4.82,2.42-1.1.2-1.47-.64-1.01-1.55.92-1.32,2.27-2.26,3.76-3.02.6-.31,1.29-.56,1.75-1.1.05-.21-.39-.2-.53-.18-.94.37-1.89.72-2.83,1.06l-.88.56c-1.68,1.55-2.44,1.56-2.3.02.71-2.49,4.63-4.66,7.16-4.53,1.39.07,2.58,1.13,3.48,2.09,2.1,2.24,3.89,4.56,5.68,7.07.52,2.46.34,4.92-.52,7.17Z"/>
      <path class="cls-92" d="M105,41.54c.69.55.62,2.37.48,3.23l-.34.34c-.45.6-.76,1.28-.65,2.15-8.8-3.05-18.06-3.83-27.17-2.25l-1.58.48-.28-.41c-.07-.4-.18-4.03-.09-4.22.07-.17.18-.31.35-.41.95-.41,1.91-.65,3.02-.97.58.74,1.58.58,2.28,1.06l2.63,1.82c.73.51,1.51-1.06,2.23-1.68.17.07.2-.02.12-.23l1.53-.44c.78-.22,1.19-1.03,1.49-1.8,5.03.2,11.54,1.41,16,3.34Z"/>
      <path class="cls-85" d="M97.04,83.67c4.7-2.93,9.14-6.66,11.22-11.99.21-.31.35-.49.75-.3.56.6,1.31,1.11,1.61,1.99-.43,3.94-1.77,7.49-3.62,10.94-1.95,3.61-4.42,6.82-7.82,9.32-2.02-2.56-4.04-4.93-6.2-7.25-.13-.14-.06-.38.01-.43s.22-.17.36-.25l3.69-2.02Z"/>
      <path class="cls-10" d="M92.37,123.09c.54,2.83.77,5.8.54,8.74l-2.24,7.16c-.29.47-.52.64-.89.1l-2.62-4.47-1.84-2.95c-.32-.52-.4-1.18-.33-1.83.54-4.87,1.02-9.64,1.87-14.46l1.03-5.83,1.46,2.54c-1.3,1.37-1.59,3.49-.2,4.87-.52,1.58.38,2.69,1.56,3.59.25.59.29,1.63,1.1,2.01l.56.52Z"/>
      <path class="cls-158" d="M84.86,106.41l-.05-.23c-2.53-1-4.85-2.39-6.44-4.71s-2.03-4.83-2.03-7.51c.21-.82.47-1.64.99-2.3,1.97-2.49,5.61-.89,8.06,1.12,2.92,2.4,4.53,5.69,4.59,9.51.02,1.49-.42,2.9-1.81,3.69-.98.56-2.19.62-3.3.43Z"/>
      <path class="cls-35" d="M69.78,100.48c.23.1.43.28.56.58l3.1,7.33,7.6,18.14,3.06,7.2c.56,1.31,1.04,2.61.93,4.09-.04.51-.34.7-.9.71l-28.04.46c-.84.01-1.51-.27-1.84-1.03l-2.36-5.42c-.02-.61,1.18-.76,1.68-.56.44,1.12.95,2.2,1.55,3.22.21.57.49,1.16.87,1.65.34-.16.75-.14,1.23.07,8.6-.19,17.21-.4,25.83-.62.59-.08.63-.27.5-.86-.27-1.21-.84-2.9-1.53-3.92-2.66-6.25-5.3-12.48-7.95-18.69l-.41-.47-4.91-11.76c.03-.28.79-.32,1.01-.13Z"/>
      <path class="cls-114" d="M94.32,45.45c.46,0,.45.38.2.69-2.49,3.18-7.61,5.75-11.52,6.41-3.04.19-6.13,0-9.17-.64,1.02-2.03,2.88-4.58,4.69-6.12.6-.51.57-.05.39-.13-.05-.02-.06-.11-.07-.23,5.13-.78,10.27-.72,15.49,0Z"/>
      <path class="cls-65" d="M94.47,38.08l3.05-.3c4.26-.14,7.44-3.52,7.51-7.66l2.21,2.49c2.93,3.3,6.62,4.63,7.03,5.82.64,1.84-.59,3.71-2.2,4.5-.89.44-1.62.87-2.55,1.03-.12-.51-.4-.85-.77-1.13-3.58-2.73-9.72-4.05-14.27-4.75Z"/>
      <path class="cls-72" d="M109.11,56.86c-.23.23.34.25.15,0,.03-.42.18-.46.55-.47,1.11-.03,1.33,2,1.18,2.83-.02.08-.06-1.67.14-1.58.42,1.55-.08,3.38-1.16,4.69-.95,1.15-2.36,1.62-3.88,1.41-.17,3.83.14,6.8-2.32,9.76-3.83,4.62-8.74,7.94-14.91,7.55-2.05-.13-3.96-.57-5.75-1.34.46-.14.91,0,1.4.07,5.29.85,11.62-.51,15.11-4.66,1.65-1.96,2.77-4.19,3.37-6.71.72-3.05,1.17-6.1,1.23-9.25.01-.54-.13-.97.46-1.26-.28-.11-.43-.07-.55-.06,1.26-.26,1.43-1.25,2.65-1.99.38-.07,1.53-.22,1.82-.05.18.1.61.85.5,1.07Z"/>
      <path class="cls-11" d="M137.88,96.53l2.07,5.47c.3.78.42,1.52.32,2.33-.3.08-.56.06-.77-.08-.21,2.37-1.88,3.38-4.15,3.49-3.32.16-4.96-1.53-5.54-4.65-1.1-5.89,2.32-7.89,7.54-6.29.17-.02.34-.11.52-.27Z"/>
      <path class="cls-12" d="M125.83,86.63c-4.77-2.06-9.22-4.33-13.54-6.87l.43-2.77c1.15-.76,2.45-1.07,3.82-1.21l11.07,5.51c.6.28,1.4.94,1.22,1.61-1.08,1.13-2.15,2.22-3,3.73Z"/>
      <path class="cls-64" d="M124.83,88.42c.05-.35-.15-.57-.51-.73l-7.02-3.17-5.79-2.93c-1.75,3.79-3.97,7.27-7.03,10.11-1.57,1.46-4.44,3.91-5.64,2.51.26.04.6.02.85-.18l1.76-1.39c5.05-4.56,8.84-11.9,9.86-18.83l3.39,1.53-1.78.69c-.43.17-.81.48-.87.97l-.43,3.08c3.67,2.27,7.41,4.11,11.24,5.98l2.45,1.2c.06.54-.34.83-.47,1.17Z"/>
      <path class="cls-160" d="M137.88,96.53c.01.11.06.36-.07.49-.09.1-.4.13-.59.09l-2.58-.56c-1.91-.15-4.18.95-4.61,2.98-.35,1.68.06,3.5.51,5.09.73,2.6,4.5,3.51,7.07,2.21,1.06-.53,1.48-1.62,1.89-2.58.13.09.28.18.33.33.33,1.16-1.17,5.94-2.89,6.01l-1.8-.49c-1.74-.48-3.39-1.28-4.56-2.68-1.04-1.25-1.56-2.75-2.02-4.27l-.88-2.92c-.07-.24-.2-.8-.01-1.01l1.97-2.17c2.21-2.43,4.57-2.37,7.77-1.61l.47,1.09Z"/>
      <path class="cls-6" d="M90.17,85.63c-1.19,1.11-2.22,2.26-3.34,3.44-1.41-.74-2.74-1.31-4.36-1.52-.97-2.85-1.77-5.67-2.26-8.81,1.61,1.21,3.28,1.96,5.14,2.49,1.48,1.64,2.98,3.06,4.83,4.4Z"/>
      <path class="cls-43" d="M65.85,83.34c.37.21.54.66.52,1.37.13.83.31,1.02.97.42l-.5-2.57c3.8-1.99,7.64-3.8,11.65-5.38,1.19,1.08,1.29,1.67,1.38,3.28l-4.95,2.33c-3.29,1.36-6.51,2.62-9.7,4.21-.35-1.85-.53-3.66.64-3.66Z"/>
      <path class="cls-166" d="M118.49,119.32c.06,0,.19,0,.26-.04.09-.06.06-.18.08-.32l.93-10.47.06-4.89c.05-.33.61-.39.82-.49l.89,3.61,1.84,12.9-4.86-.31Z"/>
      <path class="cls-50" d="M82.99,52.56l1.72-.63c3.6-1.17,6.83-3.14,9.46-5.87.2-.2.21-.45.15-.6,2.61.37,5.11.91,7.62,1.72-5.99,3.32-12.39,5.05-18.94,5.39Z"/>
      <path class="cls-67" d="M101.64,50.81c-.09.35-.38.41-.68.53-1.87.77-3.66,1.42-5.6,1.78.3.12.58.04.7.28l-.3.29-1.25-.06c-.55.17-1.02.18-1.39.02-.33-.15-.69-.04-1.1.01l-4.53.61c-.42.49-.12,1.59.3,2.05-.47.09-.69-.36-.68-.77l.02-1.3c-3.19.22-6.29.24-9.43-.16-.82-.11-1.55-.47-2.35-.38-.46.07-.71-.49-.47-.87,3.48.62,6.98.65,10.59.25,2.59-.32,5.1-.58,7.53-1.43l4.41-1.54,3.19-1.43c.5.75.72,1.49,1.03,2.14Z"/>
      <path class="cls-81" d="M83.44,24.92c-3.12,4.45-8.54,7.32-13.8,8.85.37,1.92,1.28,3.4,2.47,4.71.48.53.88,1.08,1.45,1.54.21.17.25.43.18.64.12.18-.04.5-.15.47-1.92-.57-3.67-1.83-4.6-3.64-.78-1.5-.72-3.31-.32-4.87.14-.53.52-.74.98-.86,2.65-.7,5.12-1.69,7.43-3.15,1.49-.95,2.88-1.91,4.2-3.07.64-.56,1.28-.8,2.15-.63Z"/>
      <path class="cls-91" d="M56,136.84c.3-.34.66-.14,1.09-.15l26.25-1.14-2.85-6.96-5.23-12.44-1.58-3.79c.48.14.76.47.94.93l1.24,3.1,4.89,11.42c.54,1.25.84,2.59,1.65,3.65.37.48.5.7.68,1.35l.8,2.82c.06.22.06.56-.06.71-.12.14-.41.26-.74.27l-22.53.55c-1.23.03-2.33.25-3.53-.07-.27-.07-.55-.54-1.02-.26Z"/>
      <path class="cls-107" d="M89.78,139.1c.16.08.37.07.48-.06s.15-.32.22-.53l2.06-6.51c.3-1.58.09-3.17-.02-4.76l-.16-4.14c.11,1.67,1.26,2.82,3.05,2.98l.39,5.58c.03.49-.35.95-.62,1.33l-4.64,6.79c-.2.29-.85-.46-.78-.67Z"/>
      <path class="cls-25" d="M110.99,119.43c.64,2.42.71,5.22,0,7.65-.79,1.48-2.88-.12-3.8-.84-.99-.5-1.34-1.18-1.07-2.03.32-1.96.33-3.97-.2-5.9.43-.2.67.11.7.93,1.31.65,2.63.89,3.94.72.06-.3.2-.48.43-.53Z"/>
      <path class="cls-164" d="M96.52,83.03c-.4-.05-.8-.13-1.2-.23-1.37.37-7.19.39-7.85-.78-.07-.12.08-.28.22-.36,6.91.94,13.16-2.89,17.14-8.56l.86,1.11c-2.24,3.62-5.69,6.43-9.16,8.82Z"/>
      <path class="cls-28" d="M130.25,123.77c0,.06,0,.15-.03.18-.05.06-.18.08-.33.04-3.03-.89-6.05-1.32-9.15-1.85l-7.44-1.26c-.42-.07-.83-.3-1.26-.12l-.45-1.48c2.54.03,4.95.4,7.44.81l4.1.23c1.73.1,3.14.94,4.57,1.84l2.55,1.6Z"/>
      <path class="cls-60" d="M97.24,92.34c-.7.64-1.67,2.75-1.64,3.34l.46,8.58.34,4.62-1.25-.06-.4-2.75-1.17-11.21,2.34-4.16c.62.47.9,1.14,1.33,1.64Z"/>
      <path class="cls-144" d="M60.07,99.44c.11.67.12,1.34.04,2.01-3.95.38-7.89.61-11.82.7l-.13-.21-.53-1.98c-.06-.22.01-.43.16-.56.07-.06.22-.05.32-.08.23.09.3.32.23.67.64-.45,1.39-.65,2.26-.62l-.17-.23c.22-.32.64-.13,1.01-.14l7.77-.37c.28-.01.55.02.69.22.1.15.12.39.17.59Z"/>
      <path class="cls-21" d="M41.09,103.96c0,.16-.01.34-.07.52l4.9,11.25c-.12.35-.49.45-1.12.3-.27-.1-.48-.17-.64-.52l-2.51-5.74c-1.05-2.39-2.07-4.68-2.93-7.15-.11-.31,0-.7.16-.91.11-.14.38-.25.67-.26l7.6-.34c.25.35.35.75.33,1.13l-6.66.6c.1.49.12.86.27,1.13Z"/>
      <path class="cls-150" d="M92.54,86.93c1.82,2.17,1.91,3.84.38,6.31-.24.6-.58.87-1.01.8-.91-1.38-1.99-2.53-3.27-3.69-.37-.33-.95-1.18-.54-1.6l2.55-2.62c.43-.18,1.09-.04,1.52.01l.38.79Z"/>
      <path class="cls-173" d="M52.51,118.24c-.69.73-1.65,1.13-2.88,1.22-2.53.46-8.43,1.17-7.63-2.9.21-.69.52-1.29,1.15-1.65.27,1.05.89,1.76,1.84,1.79l3.32.08c1.73.04,3.85.1,4.21,1.46Z"/>
      <path class="cls-104" d="M74.89,52.83c.2.25.38.6.47.87l.23,2.67c.26,3.04.65,5.97.86,9,.03.42.08.82.25,1.1.44.04.43.19.01.33.02.7.17,1.39.3,2.15.4,2.38.96,4.68,2.15,6.76.47.82.82,1.64,1.58,2.24.07.06.07.21-.08.28-.53-.43-1.14-.78-1.61-1.41-.76-1.01-1.45-2.02-1.91-3.22-.83-2.14-1.25-4.28-1.48-6.59l-1.07-10.65c-.18-1.78-.4-3.86.31-3.53Z"/>
      <path class="cls-108" d="M79.22,111.19l-2.59-.04,3.23,7.98,2.25,5.5,1.95,4.57c.08-.06.19-.13.3-.17-.1,1.23,0,2.35.64,3.45-.19-.09-.32-.17-.52-.38-.09.27.04.35-.03.47l-2.88-6.75-6.34-14.98,3.99.33Z"/>
      <path class="cls-118" d="M101.85,48.07c.41-.14,1.38.15,1.35.66-.02.33-.16.37-.43.3l.91,1.45c.76-.5,1.31.18,1.73.84.29.8.75,1.34,1.38,1.63.44.56.63.68.57.37-.15-.92,0-1.72.45-2.39.05-.43.16-.78.34-1.05l.27.02c.7,1.43.41,3.27.21,4.68-.94.13-1.63.31-2.28.83l-2.13,1.71c-.62-2.98-1.63-6.14-3.08-8.78l.73-.26Z"/>
      <path class="cls-130" d="M110.98,127.09l-.65,1.53c-.5,1.19-1.22,2.27-2.36,2.92l-3.89-2.23c.68-.89,1.15-1.8,1.42-2.88l.61-2.22c-.1.56.07.86.51,1.19,1.48,1.11,3.2,2.61,4.35,1.68Z"/>
      <path class="cls-119" d="M83.84,108.23c-.26-.32-.33-1.09.05-1.28.96.24,1.95.33,2.93.14.9-.28,1.83-.51,2.5-1.32.75-.92,1.27-2.08,1.24-3.33-.14-5.52-3.15-9.54-7.91-12.03.87.14,1.66.5,2.37.94,3.26,2.02,5.63,5.06,6.55,8.78.76,3.08-.54,6.23-3.41,7.62-1.36.66-2.93.69-4.31.49Z"/>
      <path class="cls-57" d="M54.3,120.73c.47.69-.73,1.5-1.32,1.86-2.11,1.28-6.53,1.38-8.76.37-.62-.28-1.13-.54-1.37-1.22,0-.41.1-.71.24-1.1,2.77.82,5.63.54,8.42-.26.94-.27,2.07-.19,2.8.36Z"/>
      <path class="cls-108" d="M68.61,142.77c-.09-.04-.15-.16-.16-.33l-.15-2.87,15.99-.29c.97-.02,1.53-.71,1.53-1.65s-.17-1.89-.49-2.73c.29-.15.69-.03.73.33l.29,2.4c0,1.28-.83,2.35-2.07,2.47l-3.28.31-12.4.59v1.77Z"/>
      <path class="cls-141" d="M75.76,94.36c-.42,2.5.13,5.17,1.5,7.37.63,1.02,1.26,1.93,2.1,2.68.15.42-.58,1.19-1,1.17-3.71-3.13-5.99-9.25-3.67-13.25.27.11.42.38.47.82.31.4.51.8.61,1.21Z"/>
      <path class="cls-152" d="M91.65,94.88c.06.31-.01.65-.2,1.03.09.57.25,1.6-.54,1.19l-2.14-3.26c-1.57-1.82-3.62-3.17-5.84-3.95-.87-.39.5-1.47,1.12-1.37,3.25.8,5.91,3.53,7.6,6.36Z"/>
      <path class="cls-64" d="M80.35,82.44c-2.36,1.2-4.82,2.18-7.38,3.2-2.35.94-4.61,1.82-7.08,2.35-.56.12-1.11.01-1.24-.51.09.05.33.26.5.24l3.96-1.8,7-2.91c1.41-.59,2.67-1.23,3.93-2.02.06.68.22,1.04.31,1.45Z"/>
      <path class="cls-123" d="M87.69,81.66c-.01.36.39.36.71.49,1.76.71,4.51.67,6.5.35.62-.1,1.3.03,1.62.53-1.29.89-2.53,1.67-3.99,2.36-.24.11-.4.51-.73.49-.3-.02-.48-.21-.76-.42-1.64-1.25-3.27-2.4-4.63-3.97l1.27.17Z"/>
      <path class="cls-31" d="M109.01,71.37c-.28.2-.55.52-.69.89-1.23,3.1-3.26,5.6-5.75,7.77-.98.85-2.01,1.51-3.03,2.26-.83.61-1.56,1.09-2.49,1.37.03-.08.06-.22.13-.27,4.52-3.09,8.45-6.72,10.6-11.85.08-.2-.36-.44-.44-.3l-1.28,2.28c-1.59-1.09.13-1.85.4-4.13,1.06.55,1.83,1.19,2.56,1.98Z"/>
      <path class="cls-62" d="M92.12,110.02c-.79-1.01-1.34-1.92-2.28-2.81,1.98-1.32,2.91-3.2,3.64-5.54.47,2.53.42,4.93,1.03,7.42l-2.39.94Z"/>
      <path class="cls-47" d="M104.86,125.92l-.62,1.64c-1.13,0-2.5-.03-3.32-.9l-2.72-2.89c-.3-.32-.66-.51-1.12-.35-1.52.54-2.53,1.41-2.01,1.58.42.13.7-.31,1.08-.1.15.09.26.4.13.43-1.42.34-2.69-.35-3.11-1.63-.11-.35.12-.55.21-.75.33.58.97.63,1.61.39l3.04-1.12,2.3,2.21c1.1,1.06,3.22,2.13,4.53,1.48Z"/>
      <path class="cls-169" d="M78.83,45.44c.09.03.2-.02.39.07l-1.4,1.53c-1.23,1.34-2.51,2.61-3.34,4.24l-.1.49c-.03.14-.34.17-.56.14l-1.61-.54c-.44-.29-.61-.46-.45-.98.19-.58,1.94-2.45,2.47-2.97s1.17-.96,1.83-1.36c.94-.31,1.85-.49,2.76-.63Z"/>
      <path class="cls-58" d="M54.59,123.96c.51,1.06-1.34,1.81-2.14,2.12-1.77.69-6.63,1.81-7.69-.38-.33-.68-.43-1.44.52-1.13,2.04.51,6.22.24,8.07-.72.42-.21.82,0,1.24.11Z"/>
      <path class="cls-99" d="M105.13,45.11c.01-1.21.17-2.38-.14-3.57,1.4.6,4.04,1.78,3.95,2.74l-.42,4.76-1.98-1.09c.7-.51.85-1.15.73-1.91-.07-.47-.49-1.17-1.14-1.23-.38-.03-.72.22-1.01.29Z"/>
      <path class="cls-163" d="M50.75,97.3l.27-.18c-.13-1.94.96-2.91,2.79-3.08,1.19.26,2,1.19,2.32,2.39l.13,1.76-4.49.12c-.49.01-.86-.62-1.01-1.02Z"/>
      <path class="cls-1" d="M83.64,30.91c.07.05.07.11,0,.18-.09.26-.2.34-.43.22-.54,1.35-1.76,2.16-3.21,2.16.34.82.45,1.65.34,2.49-.33,1.03-.36,2-.11,2.91.38.23.59.49.63.79-.07.09-.19.1-.37,0-.8.02-1.47-.47-1.66-1.33-.37-1.69.93-3.06-.24-4.85-.24-.37-.42-.8-.38-1.25,2.68.11,3.17-.68,4.28-2.92.35.7.65,1.22,1.15,1.59Z"/>
      <path class="cls-55" d="M84.86,106.41c-5.64-.94-9.78-7.62-8.52-12.45.3.29.4.64.37,1.04-.13,1.72.47,3.29,1.12,4.82,1.34,3.16,5.14,5.9,8.58,6.2-.58.39-1.1.03-1.56.39Z"/>
      <path class="cls-98" d="M42.84,121.74c1.7,1.47,4.26,1.69,6.62,1.5,1.6-.13,3.12-.51,4.26-1.66.26-.27.54-.49.57-.85,1.35,1.02-.73,2.9-4.19,3.34-1.89.24-3.76.32-5.53-.38-.87-.35-1.73-1.03-1.73-1.96Z"/>
      <path class="cls-61" d="M45.28,124.57c-.21,0-.43,0-.54.03-.52.13.12,1.84,2.81,2.06,2.11.17,4.13-.47,5.98-1.45.54-.29.87-.64,1.06-1.23.41.11.37.52.34.87-.13,1.52-5.25,3.68-8.77,2.56-1.21-.39-1.87-1.51-1.62-2.86.06-.3.5-.01.73.04Z"/>
      <path class="cls-4" d="M48.16,101.94l11.89-.75.02-1.75c.22.8.29,1.72.09,2.6l-11.19.59c-.3.02-.55-.01-.69-.23-.07-.11-.08-.31-.12-.46Z"/>
      <path class="cls-126" d="M52.51,118.24c.11.41-.4,1.02-.92,1.22-2.74,1.08-8.2,1.65-9.38-.47-.44-.79-.46-1.65-.22-2.43l.07,1.54c1.68,1.75,4.79,1.51,7.28,1.07,1.14-.2,2.16-.46,3.17-.93Z"/>
      <path class="cls-26" d="M90.91,97.11c.24-.09.34-.32.31-.6-.23-.62-.05-1.22.43-1.63,1.79,2.99,2.19,5.83.45,8.95.33-2.43.1-4.74-1.19-6.72Z"/>
      <path class="cls-83" d="M86.81,107.09c-.86.27-1.84.22-2.88-.07.09.5.11.86-.09,1.21-2.07-.31-3.9-1.32-5.49-2.66.2-.5.58-.84,1-1.17,2.14,1.94,4.53,2.91,7.46,2.69Z"/>
      <path class="cls-103" d="M44.79,116.03l.86-.08-3.45-8.05-1.49-3.32c-.13-.28.1-.61.37-.62.83,1.51,1.36,3.06,2.06,4.64l3.3,7.42c-.61.26-1.19.19-1.67.01Z"/>
      <path class="cls-125" d="M91.91,94.04c.84-.83,1.19-1.96,1.6-3.05.37-.99.24-1.93-.42-2.77-.31-.4-.37-.9-.55-1.29l2.94,3.19-2.34,4.11c-.15.26-.56.27-.78.28-.37.02-.32-.27-.45-.47Z"/>
      <path class="cls-120" d="M76.6,110.36l-1.54-.15-1.91-4.53-1.75-4.25c1.22.55,2.17,3.04,2.92,4.74l1.47,3.31c.19.43.38.77.8.87Z"/>
      <path class="cls-115" d="M46.69,128.83l.44-.12c1.61.89,4.06.52,5.53-.51.33-.23.85-.63.77-1.05.37-.16.61.02.82.34.51.8-1.65,3.01-4.62,3.05-.73.01-1.42,0-2.07-.26s-.91-.72-.87-1.46Z"/>
      <path class="cls-44" d="M53.44,127.15c.05,0,.42.1.39.22-.45.93-1.32,1.37-2.19,1.7-1.65.64-3.45.72-4.95-.24,0-.15-.12-.39,0-.61,2.32.44,4.6-.12,6.75-1.07Z"/>
      <path class="cls-87" d="M75.7,40.45c-.11,1.72.26,3.47.03,5.04l-1.36.39-.03-4.9c.48-.3.94-.35,1.36-.53Z"/>
      <path class="cls-78" d="M108.4,49.9c-.44.36.13,1.3-.61,1.03-1.33-.63-2.72-1.19-4.19-1.7l-.41-.5-.77-.28c-.21-.08-.33-.41-.58-.38.34-.12.81-.59,1.3-.45,1.79.5,3.85,1.09,5.26,2.28Z"/>
      <path class="cls-42" d="M76.07,46.07c-.43.78-1.26,1.18-1.84,1.84l-1.85,2.1c-.38.43-.52.97-.17,1.37-.44-.15-1.06-.48-1.19-1.05-.14-.63.34-1.28.81-1.67l2.25-1.88c.53-.44,1.34-.5,1.98-.71Z"/>
      <path class="cls-45" d="M99.6,128.86c.38-.27.14-.73-.73-1.38-.36-.57-.71-.93-1.05-1.08l-1.43-1.81c1.27-1.56,1.87,1.08,4.32,2.78.46.32.79.5.6,1.07-.14.42-.4.65-.97.65-.3,0-.52-.04-.74-.23Z"/>
      <path class="cls-17" d="M110.99,119.43c0,.24,0,.58-.22.78-.59.55-3.13-.12-4.47-.75-.09-.39-.02-1-.39-1.15-.17-.03-.14-.42.02-.38l4.63,1.22c.1.03.39.19.41.28Z"/>
      <path class="cls-121" d="M89.9,111.6l-1.98-3.09c.6-.24,1-.46,1.56-.84.74.88,1.47,1.66,2.03,2.71-.61.32-.99.58-1.61,1.21Z"/>
      <path class="cls-54" d="M84.05,88.53l-.94.83c-.1.09-.21.18-.24.28-.02.07.04.19.05.26-2.02-.7-3.91-.83-5.97-.23,2.15-1.63,4.7-1.92,7.09-1.14Z"/>
      <path class="cls-168" d="M97.68,119.27c-.51-.08-.87.39-1.33.64-1.37.74-2.66,1.42-3.64,2.69-1.12-.88-1.66-2.2-.95-3.01-.14.56.78,1.82,1.37,1.43l3.01-1.97c.43-.28.78-.6,1.53-.48-.05.21-.07.46,0,.69Z"/>
      <path class="cls-46" d="M75.76,94.36c-.67-.41-1.13-1.23-1.08-2.03.44-.75.86-1.35,1.75-1.76s1.77-.86,2.87-.69c-2.16.73-3.21,2.44-3.55,4.48Z"/>
      <path class="cls-101" d="M96.25,115.99c-.15.04-.36.03-.55.15l-4.16,2.62c-.35.22-.42.66-.63,1.07-1.2-.63-1.53-2.04-.83-3.04-.07.25-.16.61,0,.79s.53.64.79.51c1.6-.9,5.24-2.93,5.38-2.1Z"/>
      <path class="cls-131" d="M55.13,135.19c-.24-.1-.43-.27-.55-.53l-1.14-2.46c-.59-.07-1.03.18-1.53.32-.2-.45-.57-.87-.63-1.51l1.78-.69c.82,1.67,1.49,3.25,2.08,4.86Z"/>
      <path class="cls-8" d="M140.27,104.33c-.31,2.44-1.19,6.85-3.33,6.27,1.84-1.39,2.57-4.18,2.56-6.34.05-.12.34-.2.48-.25.13-.05.25.11.29.32Z"/>
      <path class="cls-97" d="M69.78,100.48c-.38-.16-.74.11-1.01.13l-2.15.1-5.57.36c-.15,0-.18-.55-.04-.58,2.87-.19,5.75-.19,8.59-.18.15,0,.21.1.19.18Z"/>
      <path class="cls-39" d="M65.85,83.34c.29-.33.61-.58.99-.78.12,0,.32.08.37.31l.5,2.42c-.32.32-.77.51-1.24.63-.5-.81-.47-1.71-.62-2.58Z"/>
      <path class="cls-7" d="M111.13,57.64c-.13.52.08,1.08-.14,1.7-.11-.72-.01-1.47-.43-2.12-.33-.52-.84-.62-1.3-.35-.04.14-.09.14-.15,0-.08-.18-.41-.18-.56-.23,0-.19.05-.48-.09-.56-.18-.11-.47.05-.61.03l-1.07-.25c.85-.52,1.78-.79,2.75-.37.85.37,1.33,1.2,1.59,2.16Z"/>
      <path class="cls-145" d="M130.74,84.62c-1.22-.22-2.38.84-3.34,1.92-.27.3-.54.59-1,.5.63-1.03,1.29-1.99,2.23-2.94.17-.17.36-.7.79-.5.49.22.99.66,1.33,1.02Z"/>
      <path class="cls-49" d="M95.06,112.49l-1.52.8c-1.64.58-3.04,1.63-4.02,3.04-.6-.7-.67-1.49-.47-2.2,0,.18,0,.74.27.81,1.04.27,2.1-2.21,4.74-2.06.27-.2.71-.36.99-.39Z"/>
      <path class="cls-156" d="M106.39,47.56c-.39.32-.74.07-.95-.08-.23-.16-.3-.48-.34-.91-.05-.59.43-1.48,1.13-1.19.74.3.76,1.68.15,2.17Z"/>
      <path class="cls-171" d="M53.8,94.05c.05.31-.32.11-1.23.59-1.8.95-.91,2.6-1.39,2.85-.13.07-.3-.03-.44-.19-.35-.9-.03-1.83.56-2.51s1.53-.95,2.49-.74Z"/>
      <path class="cls-68" d="M80.5,39.66h.37c.13-.39.46-.4.98-.04l1.69,1.28.11.41c.62-.85,1.32-1.54,2.12-2.08,1.35-.2,2.03-.83,2.03-1.9l.33-.31c-.09-.24-.08-.42.02-.52.25.63.37,1.33.07,2-.26.6-.95.91-1.69,1.03-1.58.28-1.49,1.49-2.7,2.27l-2.58-1.88c-.22-.16-.59-.1-.74-.27Z"/>
      <path class="cls-116" d="M52.44,116.94c-.69-.46-1.47-.75-2.35-.75h-2.64c-.2,0-.45-.04-.52-.2.37.05.68.05.96.04,1.04-.06,1.45-.45,1.92-.51l1.81-.21.82,1.62Z"/>
      <path class="cls-79" d="M88.15,36.51l-.02.52-.39-.09c-1.07-1.64-.92-3.54-.11-5.23-.73.37-2.73.5-3.53.17-.43-.18-.77-.36-.45-.8-.02-.04,0-.14,0-.18.77.58,1.65.74,2.66.51l1.65-.37c.5,1.34-1.08,2.21-.23,4.38l.42,1.07Z"/>
      <path class="cls-146" d="M55.86,128.3h0c0,.1-.03.19-.09.27-.07.12-.13.23-.19.36-.03.04-.05.09-.07.14-.06.14-.12.28-.17.43l-.83,1.3c-.15.23-.44.31-.46.6l-.62-1.44c.76-.48,1.31-1.12,1.45-1.89.14-.46.67-.33.88,0,.05.08.08.17.08.25Z"/>
      <path class="cls-20" d="M50.43,99.15c.42.02.91-.11,1.4.23l-2.78.54c-.26.05-.62.68-1,.25-.14-.16,0-.64.06-.84.75-.2,1.54-.2,2.32-.17Z"/>
      <path class="cls-94" d="M85.85,40.67c-.06-.12.01-.2.12-.23.22.13.6.16.82.38.38.39.25.99-.06,1.33-.27.31-.92.57-1.29.17-.43-.47.62-1.24.41-1.66Z"/>
      <path class="cls-18" d="M55.89,124.27c-.02.14-.05.22-.09.25h0s0,0,0,0c-.02.02-.05.02-.08,0-.05-.04-.11-.12-.16-.25-.1-.5-.6-.77-1.21-1.08.86-.56,1.14-1.51.91-2.44.33.39.61.8.66,1.3.06.61-.24,1.06-.71,1.49.35.23.58.46.68.73Z"/>
      <path class="cls-71" d="M99.6,128.86c-.77-.68-1.24-1.61-1.79-2.46.07-.04.3-.18.36-.12l1.93,2.02c.1.1.12.4.08.5-.06.18-.37.14-.58.07Z"/>
      <path class="cls-74" d="M54.44,126.74c-.26-.35,1.12-.79,1.18-2.19.1-.03.17-.04.18-.03.13.26.87,1.92.83,2.02-.07.17-1.22.34-1.51.35-.22.15-.45.09-.68-.16Z"/>
      <path class="cls-13" d="M56.78,128.7c-.16.22-.55.28-.8.11t0,0c-.09-.05-.16-.13-.2-.23-.16-.38-.51-.55-.87-.52.04-.21.05-.44.02-.65l-.12-.28c.03-.06.1-.12.19-.17.02,0,.04,0,.07-.03.03,0,.07-.02.11-.03,0,0,.02,0,.02,0,.2-.07.45-.11.66-.1h.02c.15,0,.27.04.35.1-.17.42-.1.96-.14,1.49l.74-.02c.04.14.01.25-.05.34Z"/>
      <path class="cls-151" d="M56.22,126.89l-.12.02-1.03.16c-.18.02-.16.24-.15.34l-.49-.66c.63.07,1.3-.07,1.98-.26.02,0,.04,0,.06-.02l-.02-.03-.84-1.87-.06-.28h.33l.89,2.33c.11.27-.42.32-.56.28Z"/>
      <path class="cls-113" d="M52.46,119.67c.57-.61.77-1.09.66-1.71.37.55.37,1.28.75,1.84l-1.42-.14Z"/>
      <path class="cls-9" d="M112.69,112.58l-2.98,2.55c-.68.58-2.35-2.06-3.67-2.67-1.09-.51-2.28-.93-2.86-2.1-1.71-3.46.92-6.61.54-7.47-.28-.63-1.04-.91-1.25-1.63.39-1.05.98-2.08,1.9-2.72.61-.43,1.65.54,2.7.72l1.72-1.75c1.3-1.32,2.14,1.27,3.22,1.87.82.46,2.22-1.33,3.23-.08.49.6,1.02,1.34,1.19,2.16.18.91-1.73,1.2-1.29,2.23,1.24,2.88,1.89,5.66-.32,8.09l-2.13.8Z"/>
      <path class="cls-157" d="M65.38,107.96l-14.48,1.64c-.47.06-.71-.02-.74-.42l14.79-1.63c.2-.04.3-.09.38-.06.16.05.21.45.05.47Z"/>
      <path class="cls-69" d="M64.81,109c0,.13-.06.24-.31.26l-13.1,1.41c-.18-.11-.23-.29-.26-.45l13.46-1.48c.15-.02.22.2.21.26Z"/>
      <path class="cls-86" d="M69.98,110.73l-17.72,1.98v-.3s17.4-1.95,17.4-1.95l.36-.09c.11-.03.21.33-.04.36Z"/>
      <path class="cls-5" d="M72.94,117.13l-17.87,2.1-.07-.28,12.62-1.47,5.22-.66c.11.1.1.22.1.32Z"/>
      <path class="cls-32" d="M74.26,120.43l-17.35,2.03c-.25.05-.38-.1-.26-.28l17.52-2.04c.12.1.09.21.09.29Z"/>
      <path class="cls-53" d="M75.14,122.65l-17.57,1.98.06-.28,17.03-1.98c.29-.04.58-.13.48.28Z"/>
      <path class="cls-2" d="M71.44,113.95l-3.33.41-14.53,1.62c.02-.1,0-.21,0-.31l17.78-2.02c.09.09.12.19.09.3Z"/>
      <path class="cls-96" d="M76.46,125.76l-17.57,2v-.3s17.1-1.95,17.1-1.95c.28-.04.56-.14.47.25Z"/>
      <path class="cls-2" d="M71.61,128.03l-11.92,1.33-.02-.29,11.84-1.37c.09.11.1.22.1.33Z"/>
      <path class="cls-159" d="M71.11,129.32l-10.82,1.24c-.09-.09-.14-.19-.15-.26l10.86-1.3c.08.1.13.18.1.32Z"/>
      <path class="cls-149" d="M66.11,119.14l-8.3.97c-.9.11-1.59.26-2.41.16.16-.45.5-.24.84-.29l9.6-1.11c.18-.06.34.03.27.28Z"/>
      <path class="cls-2" d="M62.76,112.72l-10.08,1.08c.01-.06,0-.16-.04-.25l9.94-1.11c.11,0,.28-.11.35-.09.1.04.2.33-.17.37Z"/>
      <path class="cls-53" d="M64.33,115.98l-9.58,1.08c-.36.04-.56.15-.66-.25l10.52-1.18c.07.3-.08.34-.28.35Z"/>
      <polygon class="cls-147" points="60.05 134.06 57.43 134.45 56.35 131.95 58.96 131.61 60.05 134.06"/>
      <path class="cls-48" d="M58.61,130.72l-2.6.42-.66-1.64c-.13-.32-.33-.54-.28-.93.29.1.49,0,.7,0,.42,0,.71.04,1.05-.21.17-.05.73-.13.81.06l.98,2.3Z"/>
      <path class="cls-122" d="M66.49,124.86l-8.35.92c-.06-.06-.12-.15-.15-.25l8.39-.98c.09.09.13.18.11.31Z"/>
      <path class="cls-154" d="M78.79,130.13c-1.62.54-3.14.38-4.8.71l-1.26,1.82c-.09.13-.2.17-.3.12-.1-.06-.13-.16-.05-.29l1.24-1.94,5.17-.41Z"/>
      <polygon class="cls-105" points="51.33 114.44 48.67 114.85 47.68 112.45 50.2 112.11 51.33 114.44"/>
      <path class="cls-112" d="M66.79,132.97l-5.35.61-.09-.23,5.37-.67c.08.09.09.2.07.29Z"/>
      <path class="cls-112" d="M78.62,131.85l-4.78.51c-.09-.05-.11-.14-.11-.19l4.54-.61c.23-.03.44.13.35.29Z"/>
      <path class="cls-155" d="M48.94,107.42c-.09.06-.2.16-.3.18.03-.11.03-.24,0-.41.04.08.08.16.11.22.01.03.09.02.19,0Z"/>
      <path class="cls-102" d="M101.11,65c-1.42,1.7-3.87,2.44-5.85,1.6-.58-.24-.94-.81-1-1.27-.06-.54.25-1.09.77-1.44,1.85-1.25,5.41-2.35,6.29-.81.31.55.3,1.31-.21,1.92Z"/>
      <path class="cls-124" d="M76.71,66.8v-.33c-.04-.72.48-1.43,1.26-1.8,1.23-.59,3.14-.74,4.19.26.85.81.1,2.1-.73,2.55-1.78.97-3.59.82-4.71-.68Z"/>
      <path class="cls-106" d="M96.07,53.39c.36.05.76.07,1.01.46l-2.51.85-2.81,1.61c-.13.77-2.25,1.56-2.46.59-.23-.22-.45-.48-.54-.86,1.24-.53,2.19-1.27,3.33-1.86l1.05-.55c.89-.46,1.95-.4,2.94-.25Z"/>
      <path class="cls-3" d="M83.87,66.43c.3.07.6.25.88.55,1.17.28,2.38.2,3.64-.23.7.11.57.32.24.81-.52.78-2.65.97-3.48.63-1.42-.2-2.32-1.56-2.02-3.12l1.29-6.72c.56,2.06-.15,3.94-.51,5.85-.15.79-.39,1.55-.05,2.22Z"/>
      <path class="cls-34" d="M85.15,68.19c1.25.12,2.59-.08,3.57-1.18-2.06.5-4.3,1-4.85-.58.11-.16.27-.13.5-.09l1.91.29c.96.15,1.7-.22,2.39-.81.31-.26.64-.35.73-.91.29.35.42.7.49,1.05-.3,1.83-2.13,3-3.93,2.45-.25-.08-.7.15-.81-.22Z"/>
      <path class="cls-109" d="M82.66,57.63c-.53.7-2.36.5-2.6-.32-1.22-.51-2.4-1.07-3.79-1.16.68-.82,1.57-1.02,2.4-.74l3.19,1.07c.41.14.71.38,1.12-.01.07.52-.06.91-.33,1.17Z"/>
      <path class="cls-23" d="M85.93,71c1.75-.42,3.53-.51,5.29-.07l1.29.52c.02-.27-.07-.54.13-.96.33.37.45.87.22,1.49-3.15-1.08-6.51-.78-9.43.73.55-1.07,1.57-1.34,2.5-1.7Z"/>
      <path class="cls-100" d="M91.75,56.31l.04,1.37-.13.41c-.02.07.23.1.3.07.11.24-.16.53-.37.64-.03.1-.08.09-.15,0-.49-.23-.92.84-1.54.77-.54-.81-.57-1.81-.6-2.67.45.19.96.14,1.44-.09l1.02-.5Z"/>
      <path class="cls-82" d="M96.35,58.62c.03.53.06,1.11-.22,1.61-.47.82-1.37,1.12-2.2,1.26-.43-.09-.42-.2.04-.33.02-.3.09-.62.22-.96-.78.15-1.35-1.2-.63-1.46.01-.12.03-.21.07-.22.48-.13,2.05-.3,2.48-.21l.24.32Z"/>
      <path class="cls-90" d="M96.74,57.85c.15.39-.33.51-.38.78l-2.79.11-.2.33c-1.23-.03-.8,2,.26,1.86l.35.23-.04.33c-.92.16-1.75-.38-1.97-1.38-.11-.48-.24-.95-.53-1.31.04.02.11.01.15,0-.02-.1.03-.15.09-.22.47-.45,4.43-1.24,4.95-.92.05.03.09.1.11.18Z"/>
      <path class="cls-136" d="M94.36,69.52c.47.97,1.12,1.8.99,2.95-1.23-2.24-2.59-4.14-4.29-6.08,1.44.68,2.32,1.9,3.31,3.14Z"/>
      <path class="cls-70" d="M79.85,60.13c.22,0,.35.1.39.32,1.39-.31,1.29,1.44.11,1.76-.25-.02-.57.1-.81-.07-1-.24-1.43-2.32-.21-2.5.53-.08,1.01,0,.52.49Z"/>
      <path class="cls-77" d="M82.66,57.63c-.42.39-.38.86-.84,1.67-.36.11-1.05.05-.94-.44.09,0,.16-.07.14-.18-.52-.11-.77-.41-1.04-.83-.1-.06-.34-.24-.2-.33l.29-.22c.82.34,1.76.55,2.6.32Z"/>
      <path class="cls-170" d="M96.74,57.85l-1.78.09-3.38.87c-.09-.3.09-.54.37-.64,1.55-.55,3.83-1.26,5.15-.46-.08.14-.23.16-.37.14Z"/>
      <path class="cls-93" d="M80.5,59.49c.33.1.68.38,1.24,0,.16.23.09.41.09.62-.22.31-.62.34-1.17.11-.35.08-.62.05-.81-.1.01-.18-.12-.31-.24-.31-.1,0-.34.04-.44.15-.64.67-.37,1.76.38,2.18-.65.45-1.22-1.28-1.34-2.66.04-.12.1-.26.21-.28.48-.1,2.06-.27,2.09.3Z"/>
      <path class="cls-51" d="M81.83,60.12c.01.44.06,1.11-.28,1.55-.24.31-.72.57-1.2.54.46-.36.67-.95.49-1.56-.26.11-.5.17-.69.11-.25-.07-.32-.41-.3-.63.73-.51,1.26-.02,1.98,0Z"/>
      <path class="cls-56" d="M78.87,58.85c.54-.14,1.11-.14,1.65,0,.11,0,.26,0,.35.03l.94.44c-.21.37-.92.17-1.32.19-.72-.23-1.55.04-2.3-.02-.12.08-.48.04-.52-.15.3-.36.81-.48,1.18-.48Z"/>
      <path class="cls-75" d="M89.28,74.02c-.02.61-1.67.2-3.45.27.91-.87,2.36-.8,3.45-.27Z"/>
      <path class="cls-37" d="M84.58,57.33c-.19-.47-.55-.96-.29-1.6.31.51.41.93.29,1.6Z"/>
      <path class="cls-77" d="M80.52,58.84h-1.65c.46-.26,1.19-.26,1.65,0Z"/>
      <path class="cls-66" d="M79.11,95.08c.93,4.37,4.01,6.64,3.44,7.55-.75,1.2-6.56-3.5-5.18-9.42.09-.37.82-.94,1.05-.61.49.71.52,1.67.69,2.49Z"/>
      <path class="cls-111" d="M88.93,99.62c.24,1.43-.09,2.92-.7,2.64s.23-3.56-2.2-6.33l-1.46-1.66c-.14-.16-.11-.44-.03-.57.4-.66,3.72,1.97,4.38,5.93Z"/>
      <path class="cls-36" d="M109.11,56.86h.15s.17.29.17.29c-.45-.03-.78,0-1.12.38.38.2.7.26.81.67-.52-.13-1.08-.34-1.5,0-.5.39-.91,1.32-.79,1.85.37.09,1.04.12,1.18.6.1.36.02.79-.4,1.06,0-.41.04-.65-.08-.89-.07-.16-.37-.25-.65-.18-.32.09-.38.83-.67.66-.24-.14-.35-2.89,1.73-4.12.39-.23.75-.33,1.16-.32Z"/>
      <path class="cls-161" d="M116.44,78.16c-.15.9-1.77.88-2.21.26-.15-.2-.29-.46,0-.56-.01-.25,0-.55.18-.74.34-.35,1.27-.4,1.88.2.23.23.14.52.15.84Z"/>
      <path class="cls-88" d="M124.34,84.88c-.49-.16-.99-.36-1.4-.76.51-1.29,1.46-2.22,2.35-3.22l1.53.65c-.89,1.04-1.72,2.06-2.48,3.33Z"/>
      <path class="cls-127" d="M114.23,77.85c0,.18.07.38.29.5.63.37,1.41.27,1.92-.2.01.29.06.52-.16.68-.65.48-1.68.36-2.15-.18-.31-.35-.33-.82-.14-1.2l.25.39Z"/>
      <path class="cls-27" d="M77.35,78.27c2.11.28-.68,2.72-1.31,1.14-.04-.28-.02-.6.23-.7l1.07-.44Z"/>
      <path class="cls-16" d="M76.04,79.41c.53.5,1.5.23,1.82-.43.12-.25-.02-.51-.14-.57s-.28-.09-.37-.14c.34-.14.66-.07.85.14.22.24.22.61.02.91-.44.68-1.18,1.04-1.97.8-.2-.06-.3-.26-.31-.39,0-.08.07-.21.1-.32Z"/>
      <path class="cls-95" d="M103.2,48.73c1.22.45,2.43.84,3.67,1.42.48.22.78.23.93.78.14.5-.16,1.04-.16,1.63,0,.64.25,1.16-.54,1.52-.11-.8-.78-1.05-1.24-1.18-.5-1.06-1.23-2.51-1.9-2.27.13.32.3.69,0,1.04-.57-1.01-1.05-1.85-1.76-2.8.33-.29.69-.12.99-.14Z"/>
      <path class="cls-133" d="M53.58,96.45c.04.38.19.88-.08,1.22-.56.08-.33-.97-.56-1.12-.28-.19-.89.12-.84-.31.05-.38.76-.13.85-.34.1-.24-.29-1.05.21-1.03.33.01.16.57.29.88.16.4,1.4-.21,1.25.56l-1.12.13Z"/>
      <path class="cls-80" d="M83.65,31.08c.48,1.25,3.94.21,3.98.63-.58,1.13-.77,2.26-.58,3.38.57,1.19.66,2.29.26,3.31-.73.45-1.48.87-2.25,1.25-.46.57-.93,1.13-1.41,1.65-.82-.24-1.75-1.68-2.78-1.65-2.47-.83-.15-3.51-.99-5.46-.11-.25-.4-1.06,0-1.05,1.5.02,2.67-.76,3.11-2.23l.66.18Z"/>
      <path class="cls-38" d="M88.13,37.02c0,.49,0,1.18-.36,1.61-.52.64-1.37.66-2.09.91-1.03.35-1.25,1.99-2.03,1.77,1.02-2.57,2.98-2.44,3.43-3.14.97-1.5-1.71-3.39.55-6.45.07.76-.42,1.54-.45,2.34-.05,1.08.62,2.07.95,2.97Z"/>
      <path class="cls-73" d="M110.61,98.8c.26.34.2.47-.19.37h-.4c-.16-.62-.95-.82-.87-.05.26.46-.93,1.43-1.36,1.14l-.22.3c-.68-.06-1.34-.18-1.99-.36-.02.75-.44,1.25-1.06,1.63.5.43.7.87.6,1.31.43-.06.42.22.34.59-.91,1.59-1.31,3.21-1.18,4.86.31.51.46.98.45,1.41.06.22.25.34.57.38.98-1.53,2.64-.24,1.34,1.15l-.04.22-.88-.2c-1.55-.48-2.47-1.66-2.53-3.37-.11-3.34,2.32-4.88.61-6.21-.21-.16-.72-.55-.63-.84.26-.74.74-1.51,1.35-2,.32-.15.95.22,1.22.39,2.11,1.28,2.76-1.73,3.83-1.68.5.02.8.69,1.05.96Z"/>
      <path class="cls-153" d="M105.71,111.56l.92-.02c.72-.08,2.06,1.13,2.44,1.74.1.16.07.37.04.56.18.14.36.19.52.13.67-.74,1.37-1.44,2.12-2.09,2.26-1.04,3.39-1.66,3.27-4.36-.25-1.36-.58-2.71-1.01-4.04-.04-.91.33-1.56,1.07-2.08.01-.86-.29-1.33-.91-1.43-1.61.58-2.74.78-3.77-.79.11-.14.13-.25.19-.37l.88.94c.67.44,1.55.26,2.23-.11,1.09-.59,1.55.51,2.16,1.95-3.12,1.7.37,3.79-.43,7.56-.58,2.76-2.39,2.19-3.35,3.09l-2.61,2.46-1.9-1.81c-.55-.53-1.14-1.08-1.88-1.31Z"/>
      <polygon class="cls-135" points="59.59 133.8 57.66 134.09 56.84 132.21 58.76 131.94 59.59 133.8"/>
      <path class="cls-134" d="M58.15,130.41c-.61.22-1.23.25-1.91.34l-.77-1.78c.62-.25,1.23-.28,1.93-.31l.75,1.75Z"/>
      <polygon class="cls-135" points="50.9 114.21 48.9 114.57 48.11 112.72 50.11 112.48 50.9 114.21"/>
      <path class="cls-29" d="M93.56,58.74c-.05.71.21,1.2.43,1.15l.46-.11c.18.51.03,1.18-.48,1.39-.44.18-.84.17-1.17-.16-.68-.66-.64-1.6-.16-2.05.27-.26.62-.2.93-.21Z"/>
      <path class="cls-22" d="M126.28,81.8c-1.28,1.36-2.02,3.31-2.67,2.4-.16-.22-.22-.53-.01-.81.54-.74,1.01-1.49,1.77-2.05.24-.18.89.13.91.46Z"/>
      <path class="cls-162" d="M83.74,36.82c-.75.54-1.63.3-1.99-.41s-.31-1.41.48-2.03c.41-.32,1.25-.57,1.8-.18.44.31.74,1.24.54,1.73-.14.35-.53.67-.83.89Z"/>
      <path class="cls-132" d="M110.41,99.17c1.04,1.56,2.13,1.42,3.72.79,1.26.36,1.26,1.35.16,2.06-.32.21-1.19.6-1.36.14-.6,0-1.18.06-1.76.18-1.48-.49-3.83-.68-4.34,1.16.39.14.55.37.48.67.16.24.21.55.16.93,1.09-.34,1.95-.94,2.64-1.83.09-.49.89-.32.9.15.14-.24.42-.25.84-.04.87-.59,1.7-1.09,2.19.15.52,1.35,1.18,3.87.9,5.25-.13.66-.37,1.36-.87,1.82-1.78.85-3.19,1.79-4.44,3.36-.2.1-.41.07-.53-.12-.71-.89-1.58-1.62-2.48-2.3l-.33-.44c.36-.1.49-.29.51-.48.04-.3-.12-.48-.31-.54-.23-.07-.54-.1-.72.13-.12.14-.15.44-.26.51-.17.11-.82-.16-.96-.33-.06-.08-.06-.27.17-.37.03-.24.19-.36.48-.38-.78-2.14-.19-4.02.61-6.04-.09-.22-.32-.37-.7-.44-.24-.16-.33-.5-.57-.78l-.96-1.13.17-.18c.21.07.35.23.61.44.61-.26,1.03-.93.84-1.55.45-.21.67.03,1,.08l1.59.22c.58.28,2.18-.78,1.36-1.14-.07,0-.31-.04-.32-.17-.04-.37.3-.62.55-.65.6-.08.75.5,1.05.88Z"/>
      <path class="cls-84" d="M104.73,110.01c-.94-1.02-1.12-2.32-.64-3.64.24-.67.33-1.32.75-1.95.22-.34.43-.96.28-1.28.22-.18.5-.2.69-.11.25.13.42.42.32.72l-.68,1.96c-1.03,2.96,1.19,4.34-.71,4.3Z"/>
      <path class="cls-52" d="M107.79,100.26l1.36-1.14c.16-.14.37-.17.48-.06.42.38-.32,1.17-1.07,1.52-.36.16-.71.02-.77-.31Z"/>
      <path class="cls-148" d="M109.11,113.84c.17.06.48.04.64-.19,1.94-2.78,3.89-2.67,4.33-3.42.91-1.54.79-3.37.2-5.04l-.69-1.97c-.4-.35-1.14.13-1.47.38-.39.3-.82-.14-1.11-.19-.35-.23-.31-.62.12-1.15l1.8-.1c.69-.21,1.46-.35,1.89-1.13.14-.26,0-.62-.18-.76-.2-.15-.47-.25-.76-.15l-1.35.47c-.95.03-1.84-.66-2.13-1.43l.88.75c1.25,1.19,2.98-.96,3.64.34l.59,1.16c-.3.4-.85.63-1.02,1.12-.63,1.79.98,3.49.84,5.63-.23,3.39-2.56,2.99-3.61,4.01l-1.92,1.87c-.16.16-.35.16-.53.07-.09-.05-.1-.2-.16-.28Z"/>
      <path class="cls-89" d="M108,108.75c.16-.41,1.04-.23,1.24.11,1.45.74,3.25-1,4.24-2.62.44.39.32,1,.15,1.57-.4,1.33-1.39,2.22-2.74,2.55-1.73.42-3.55.04-4.72-1.36.12-.28.54-.58.87-.5l.96.25Z"/>
      <path class="cls-76" d="M112.94,102.16c-.42.13-.82.12-1.37.2-.31.04-.47.79-.55,1.06l-.9-.15-.25.3c-.77-.1-1.64,0-2.16.63l-.38-.03c-.26-.21-.51-.28-.9-.44.19-.67.57-1.47,1.2-1.72,1.33-.51,2.56-.38,3.81.07l1.52.08Z"/>
      <path class="cls-15" d="M109.24,108.86c-.49.15-.88-.01-1.24-.11l-.69-.54c-.36-.27-.41-.62-.28-.99.08-.23.36-.63.73-.5,1.24.41,2.25.08,3.55-.41-.31,1.26-1.14,1.99-2.08,2.55Z"/>
      <path class="cls-19" d="M110.11,103.27c.45.66-1.53,1.93-2.88,2.24-.22-.4-.13-1.01.08-1.34.6-.95,1.74-1.07,2.8-.9Z"/>
    </g>
  </g>
</svg>